<?xml version="1.0" encoding="UTF-8" standalone="no"?><!DOCTYPE svg PUBLIC "-//W3C//DTD SVG 1.1//EN" "http://www.w3.org/Graphics/SVG/1.1/DTD/svg11.dtd"><svg width="100%" height="100%" viewBox="0 0 954 235" version="1.1" xmlns="http://www.w3.org/2000/svg" xmlns:xlink="http://www.w3.org/1999/xlink" xml:space="preserve" xmlns:serif="http://www.serif.com/" style="fill-rule:evenodd;clip-rule:evenodd;stroke-linejoin:round;stroke-miterlimit:2;"><g><g><path d="M142.535,70.912c-66.401,20.238 -63.006,27.076 -89.127,39.698c-4.903,2.369 -12.299,-23.107 5.428,-35.544c89.216,-62.595 185.194,-45.731 187.981,-42.789c8.23,8.686 6.518,33.479 -20.284,33.39c-42.322,-0.142 -41.969,-0.625 -83.998,5.246Z" style="fill:#4a65b4;"/><path d="M205.445,95.576c22.681,2.004 31.971,4.705 22.102,25.016c-5.537,11.397 -20.105,11.18 -22.084,11.15c-11.73,-0.175 -100.863,-1.502 -142.069,36.325c-22.757,20.891 -17.326,-17.604 -8.766,-25.804c45.58,-43.662 138.191,-46.324 150.816,-46.687Z" style="fill:#4a65b5;"/><path d="M142.076,193.374c-8.569,-0.631 -118.504,-2.568 -37.633,-21.872c8.061,-1.924 89.866,-25.855 86.659,3.196c-3.024,27.396 -32.472,19.3 -49.027,18.675Z" style="fill:#4862b0;"/></g><g><path d="M422.754,170.374c18.177,-74.385 11.406,-118.69 35.398,-112.413c14.447,3.779 -20.961,74.119 10.007,43.068c28.528,-28.605 59.096,27.17 18.537,68.318c-18.588,18.858 -60.553,8.836 -61.606,8.723l-2.335,-7.696Zm34.813,-38.337c-1.261,2.103 -26.156,43.631 5.167,30.211c10.175,-4.359 20.159,-20.501 21.448,-38.014c1.832,-24.881 -25.158,6.129 -26.615,7.802Z" style="fill:#4965b4;"/><path d="M382.531,166.332c-27.215,35.445 -62.862,3.887 -40.143,-41.043c15.603,-30.857 59.692,-29.965 65.446,-29.849c16.458,0.333 9.422,8.295 6.945,24.342c-8.635,55.939 -6.468,58.137 -11.203,58.906c-12.359,2.007 -16.09,0.256 -13.841,-11.955c-1.882,-3.061 0.344,-6.228 -2.94,-4.781c-1.864,0.822 -2.399,3.558 -4.264,4.38Zm-9.063,-47.273c-29.677,26.366 -14.578,52.381 0.052,38.253c15.807,-15.265 33.854,-57.95 -0.052,-38.253Z" style="fill:#4966b6;"/><path d="M542.939,180.904c-44.063,-2.03 -31.447,-20.243 -28.818,-21.397c3.288,-1.443 45.62,16.894 48.394,-10.017c1.683,-16.329 -57.508,-37.078 -34.662,-70.353c20.812,-30.312 80.654,-12.922 60.462,1.791c-2.686,1.957 -52.852,-10.473 -41.23,17.996c3.756,9.2 57.311,33.599 27.823,70.218c-6.198,7.697 -29.277,11.337 -31.969,11.761Z" style="fill:#4662b3;"/><path d="M859.347,142.953c-25.23,4.783 -10.024,26.635 16.231,21.37c19.049,-3.82 12.922,10.368 4.291,13.437c-87.399,31.087 -48.172,-118.978 11.562,-76.889c5.335,3.759 10.928,15.349 5.577,27.535c-6.809,15.507 -37.552,14.538 -37.661,14.547Zm-1.063,-28.089c-8.02,8.465 -10.734,14.856 0.694,14.777c29.388,-0.202 25.437,-19.16 12.8,-20.5c-4.641,-0.492 -12.535,5.05 -13.494,5.723Z" style="fill:#4561b1;"/><path d="M631.54,143.02c-15.887,1.993 -22.548,6.521 -11.613,18.12c11.634,12.339 42.581,-8.253 37.262,9.65c-6.069,20.427 -89.487,12.957 -53.309,-53.908c27.114,-50.114 96.038,-1.014 49.319,21.585c-10.471,5.065 -10.523,3.309 -21.658,4.553Zm-0.067,-13.445c1.83,-0.32 20.894,-3.659 18.306,-14.286c-4.35,-17.866 -53.964,13.389 -18.306,14.286Z" style="fill:#4763b4;"/><path d="M310.876,64.332c12.783,0.017 44.982,-2.473 46.681,4.991c3.626,15.933 -27.252,12.242 -29.692,13.025c-9.477,3.04 -14.885,81.919 -20.338,93.072c-2.566,5.249 -15.829,3.629 -17.226,2.655c-6.516,-4.546 8.282,-72.481 9.995,-87.532c1.77,-15.549 -7.433,-7.849 -23.11,-8.754c-8.054,-0.465 -7.132,-7.207 -7.016,-8.053c2.038,-14.898 39.243,-9.418 40.706,-9.403Z" style="fill:#4661af;"/><path d="M698.044,140.895c-0.124,0.621 -2.97,38.067 -16.014,37.945c-6.048,-0.057 -15.452,-3.427 5.026,-75.437c4.619,-16.242 14.332,4.421 28.815,-4.278c7.96,-4.781 37.325,-12.611 35.022,21.02c-0.047,0.682 -7.931,52.053 -12.629,56.444c-5.084,4.752 -14.964,1.15 -14.014,-5.953c2.026,-15.15 15.303,-60.209 -0.045,-59.937c-15.377,0.273 -25.076,27.19 -26.16,30.197Z" style="fill:#4561b2;"/><path d="M783.291,167.029c31.65,-8.427 -2.635,-25.989 -3.695,-26.742c-43.694,-31.044 30.212,-62.053 40.342,-36.848c5.141,12.791 -21.977,5.383 -23.905,5.668c-30.56,4.514 14.116,27.327 17.168,36.04c12.857,36.695 -44.856,41.85 -54.506,29.075c-11.767,-15.577 20.303,-7.559 24.596,-7.192Z" style="fill:#4661b3;"/></g><path d="M422.754,170.374c0.778,2.565 1.557,5.131 2.335,7.696c-0.706,0.109 -8.828,1.357 -8.828,1.357c-1.455,-0.558 0.503,-4.019 -0.952,-4.577c1.671,-0.965 -0.005,-2.007 1.773,-3.034c0.405,-0.234 0,-0 5.672,-1.443Z" style="fill:#37436b;"/><path d="M382.531,166.332c1.864,-0.822 2.399,-3.558 4.264,-4.38c3.284,-1.447 1.058,1.72 2.94,4.781c-2.401,-0.134 -4.802,-0.268 -7.204,-0.401Z" style="fill:#374879;"/></g></svg>